HIERARCHY
ROOT Hips
{
	OFFSET 0.000000 0.000000 0.000000
	CHANNELS 6 Xposition Yposition Zposition Zrotation Yrotation Xrotation 
	JOINT LHipJoint
	{
		OFFSET 0.000000 0.000000 0.000000
		CHANNELS 3 Zrotation Yrotation Xrotation
		JOINT LeftUpLeg
		{
			OFFSET 1.363060 -1.794630 0.839290
			CHANNELS 3 Zrotation Yrotation Xrotation
			JOINT LeftLeg
			{
				OFFSET 2.448110 -6.726130 0.000000
				CHANNELS 3 Zrotation Yrotation Xrotation
				JOINT LeftFoot
				{
					OFFSET 2.562200 -7.039590 0.000000
					CHANNELS 3 Zrotation Yrotation Xrotation
					JOINT LeftToeBase
					{
						OFFSET 0.157640 -0.433110 2.322550
						CHANNELS 3 Zrotation Yrotation Xrotation
						End Site
						{
							OFFSET 0.000000 0.000000 0.000000
						}
					}
				}
			}
		}
	}
	JOINT RHipJoint
	{
		OFFSET 0.000000 0.000000 0.000000
		CHANNELS 3 Zrotation Yrotation Xrotation
		JOINT RightUpLeg
		{
			OFFSET -1.305520 -1.794630 0.839290
			CHANNELS 3 Zrotation Yrotation Xrotation
			JOINT RightLeg
			{
				OFFSET -2.542530 -6.985550 0.000000
				CHANNELS 3 Zrotation Yrotation Xrotation
				JOINT RightFoot
				{
					OFFSET -2.568260 -7.056230 0.000000
					CHANNELS 3 Zrotation Yrotation Xrotation
					JOINT RightToeBase
					{
						OFFSET -0.164730 -0.452590 2.363150
						CHANNELS 3 Zrotation Yrotation Xrotation
						End Site
						{
							OFFSET 0.000000 0.000000 0.000000
						}
					}
				}
			}
		}
	}
	JOINT LowerBack
	{
		OFFSET 0.000000 0.000000 0.000000
		CHANNELS 3 Zrotation Yrotation Xrotation
		JOINT Spine
		{
			OFFSET 0.028270 2.035590 -0.193380
			CHANNELS 3 Zrotation Yrotation Xrotation
			JOINT Spine1
			{
				OFFSET 0.056720 2.048850 -0.042750
				CHANNELS 3 Zrotation Yrotation Xrotation
				JOINT Neck
				{
					OFFSET 0.000000 0.000000 0.000000
					CHANNELS 3 Zrotation Yrotation Xrotation
					JOINT Neck1
					{
						OFFSET -0.054170 1.746240 0.172020
						CHANNELS 3 Zrotation Yrotation Xrotation
						JOINT Head
						{
							OFFSET 0.104070 1.761360 -0.123970
							CHANNELS 3 Zrotation Yrotation Xrotation
							End Site
							{
								OFFSET 0.000000 0.000000 0.000000
							}
						}
					}
				}
				JOINT LeftShoulder
				{
					OFFSET 0.000000 0.000000 0.000000
					CHANNELS 3 Zrotation Yrotation Xrotation
					JOINT LeftArm
					{
						OFFSET 3.362410 1.200890 -0.311210
						CHANNELS 3 Zrotation Yrotation Xrotation
						JOINT LeftForeArm
						{
							OFFSET 4.983000 -0.000000 -0.000000
							CHANNELS 3 Zrotation Yrotation Xrotation
							JOINT LeftHand
							{
								OFFSET 3.483560 -0.000000 -0.000000
								CHANNELS 3 Zrotation Yrotation Xrotation
								JOINT LeftFingerBase
								{
									OFFSET 0.000000 0.000000 0.000000
									CHANNELS 3 Zrotation Yrotation Xrotation
									JOINT LeftHandIndex1
									{
										OFFSET 0.715260 -0.000000 -0.000000
										CHANNELS 3 Zrotation Yrotation Xrotation
										End Site
										{
											OFFSET 0.000000 0.000000 0.000000
										}
									}
								}
								JOINT LThumb
								{
									OFFSET 0.000000 0.000000 0.000000
									CHANNELS 3 Zrotation Yrotation Xrotation
									End Site
									{
										OFFSET 0.000000 0.000000 0.000000
									}
								}
							}
						}
					}
				}
				JOINT RightShoulder
				{
					OFFSET 0.000000 0.000000 0.000000
					CHANNELS 3 Zrotation Yrotation Xrotation
					JOINT RightArm
					{
						OFFSET -3.136600 1.374050 -0.404650
						CHANNELS 3 Zrotation Yrotation Xrotation
						JOINT RightForeArm
						{
							OFFSET -5.241900 -0.000000 -0.000000
							CHANNELS 3 Zrotation Yrotation Xrotation
							JOINT RightHand
							{
								OFFSET -3.444170 -0.000000 -0.000000
								CHANNELS 3 Zrotation Yrotation Xrotation
								JOINT RightFingerBase
								{
									OFFSET 0.000000 0.000000 0.000000
									CHANNELS 3 Zrotation Yrotation Xrotation
									JOINT RightHandIndex1
									{
										OFFSET -0.622530 -0.000000 -0.000000
										CHANNELS 3 Zrotation Yrotation Xrotation
										End Site
										{
											OFFSET 0.000000 0.000000 0.000000
										}
									}
								}
								JOINT RThumb
								{
									OFFSET 0.000000 0.000000 0.000000
									CHANNELS 3 Zrotation Yrotation Xrotation
									End Site
									{
										OFFSET 0.000000 0.000000 0.000000
									}
								}
							}
						}
					}
				}
			}
		}
	}
}
MOTION
Frames: 5
Frame Time: 0.008333
4.003234 16.790612 -4.670650 -179.766764 30.453791 -169.713193 -10.460348 2.549269 1.928252 -14.859379 -13.469070 12.295668 -2.557574 0.824016 15.388853 -0.637732 -8.600060 -5.668123 0.004600 0.000000 -28.671500 7.384291 -0.219039 4.182250 0.771511 15.061117 -31.536928 2.744052 -0.082535 7.991927 1.292762 8.255941 8.332075 1.761600 0.000000 -38.263200 3.494487 -2.975935 -4.018099 -0.082784 -3.483145 -3.543883 -7.478271 -3.555466 0.300402 8.636342 -7.897044 -4.982449 -4.609195 -0.375448 0.705506 0.000000 0.000000 0.000000 -7.328060 0.598166 0.845869 -71.700064 -22.859064 28.516380 -2.815992 -33.774207 -0.009447 3.767210 -0.298752 -0.015296 -0.105858 0.188781 -0.000000 0.000000 0.000000 0.000000 0.000000 0.000000 0.000000 19.365530 -7.575001 0.956711 61.185835 -10.600451 -18.384005 4.369066 8.724920 0.009055 -3.319745 4.393328 -0.134243 0.147908 -0.044819 0.000000 0.000000 0.000000 0.000000 0.000000 0.000000 0.000000 
4.090695 16.812223 -4.795044 -179.483726 29.986611 -169.554392 -10.643773 2.658230 1.926559 -14.241105 -13.181883 11.859237 -2.404476 0.994482 16.678801 -0.649761 -8.692371 -4.399217 -0.142199 0.000000 -33.404800 7.309360 -0.348128 4.197376 1.177798 15.187417 -31.331006 2.722788 -0.169209 8.634022 1.241001 7.846093 8.655499 1.686400 0.000000 -37.644700 3.896056 -2.903281 -4.146976 -0.006753 -3.453591 -3.575014 -7.424244 -3.527922 0.313375 8.577829 -7.724933 -4.994063 -4.627660 -0.377040 0.702629 0.000000 0.000000 0.000000 -7.494764 0.702234 0.842016 -72.239027 -21.971097 26.911797 -2.788793 -31.270839 -0.011361 4.506163 -0.257239 -0.016433 -0.100101 0.177392 0.000000 0.000000 0.000000 0.000000 0.000000 0.000000 0.000000 19.359669 -7.459829 0.904009 60.836014 -9.908102 -18.163420 4.383426 8.397799 0.008882 -3.455689 4.323533 -0.137345 0.149051 -0.044326 0.000000 0.000000 0.000000 0.000000 0.000000 0.000000 0.000000 
4.178011 16.835369 -4.917221 -179.222266 29.532720 -169.428626 -10.829038 2.774346 1.900678 -13.577410 -12.716626 11.269875 -2.242777 1.169963 18.132503 -0.664141 -8.940364 -3.030777 -0.316600 -0.000000 -38.066400 7.247781 -0.467662 4.202335 1.607505 15.233036 -31.078137 2.708924 -0.245264 9.260512 1.192669 7.480938 8.773794 1.597700 0.000000 -36.997300 4.257737 -2.838752 -4.242429 0.060899 -3.426925 -3.600019 -7.371455 -3.502948 0.328127 8.532105 -7.515251 -5.005211 -4.646722 -0.378626 0.699489 0.000000 0.000000 0.000000 -7.593055 0.825749 0.847631 -72.746571 -21.098781 25.116603 -2.747179 -28.786251 -0.013247 5.324834 -0.199614 -0.016374 -0.093328 0.166115 0.000000 0.000000 0.000000 0.000000 0.000000 0.000000 0.000000 19.361400 -7.301831 0.857367 60.534401 -9.175059 -17.928814 4.394004 8.070252 0.008674 -3.577760 4.245455 -0.139446 0.149866 -0.043811 0.000000 0.000000 0.000000 0.000000 0.000000 0.000000 0.000000 
4.265174 16.859864 -5.036883 -178.975542 29.082128 -169.328961 -11.019189 2.897663 1.850096 -12.848238 -12.054428 10.505922 -2.069790 1.349026 19.762627 -0.679144 -9.380321 -1.533833 -0.537500 -0.000000 -42.647701 7.199190 -0.577971 4.200270 2.055131 15.209147 -30.765999 2.704331 -0.307686 9.840267 1.147817 7.155511 8.693486 1.498200 -0.000000 -36.282300 4.582545 -2.784107 -4.306966 0.120746 -3.405001 -3.619427 -7.321996 -3.482466 0.344827 8.500641 -7.272005 -5.015683 -4.666725 -0.380235 0.696257 0.000000 0.000000 0.000000 -7.625862 0.964441 0.864910 -73.200822 -20.246217 23.170331 -2.694279 -26.353424 -0.014999 6.202795 -0.133014 -0.015014 -0.085571 0.155111 0.000000 0.000000 0.000000 0.000000 0.000000 0.000000 0.000000 19.373094 -7.104040 0.817275 60.283255 -8.405165 -17.678563 4.400327 7.755411 0.008449 -3.686981 4.167250 -0.140947 0.150331 -0.043321 0.000000 0.000000 0.000000 0.000000 0.000000 0.000000 0.000000 
4.352471 16.885537 -5.153644 -178.750157 28.625147 -169.253243 -11.210976 3.025294 1.779203 -12.061805 -11.212167 9.561981 -1.886746 1.527334 21.577653 -0.689302 -10.012639 0.064237 -0.818900 0.000000 -46.497100 7.166280 -0.678049 4.192295 2.507581 15.113996 -30.392850 2.709252 -0.354783 10.349949 1.107540 6.876005 8.433994 1.394500 -0.000000 -35.510501 4.864519 -2.740969 -4.345553 0.171680 -3.388978 -3.633761 -7.277345 -3.467681 0.364582 8.486026 -7.005569 -5.026426 -4.687963 -0.381892 0.692790 0.000000 0.000000 0.000000 -7.595200 1.114471 0.894442 -73.582964 -19.417229 21.131485 -2.634553 -24.000906 -0.016512 7.110304 -0.063006 -0.012350 -0.076969 0.144512 -0.000000 0.000000 0.000000 0.000000 0.000000 0.000000 0.000000 19.399974 -6.876002 0.783530 60.082749 -7.600333 -17.397456 4.401650 7.470376 0.008222 -3.785568 4.094115 -0.142047 0.150430 -0.042859 0.000000 0.000000 0.000000 0.000000 0.000000 0.000000 0.000000 
